<svg width="270" height="260" viewBox="0 0 270 260" fill="none" xmlns="http://www.w3.org/2000/svg">
<path d="M162.879 81.7642C167.216 74.5312 174.366 69.2429 182.765 67.0757C191.164 64.9084 200.113 66.0439 207.639 70.2282C215.164 74.4118 220.644 81.2958 222.887 89.3565C225.129 97.4159 223.956 106.004 219.621 113.236C215.284 120.469 208.134 125.757 199.735 127.924C191.336 130.092 182.387 128.956 174.861 124.772C167.336 120.588 161.856 113.704 159.613 105.644C157.371 97.5841 158.544 88.9956 162.879 81.7642L162.879 81.7642Z" stroke="#168C85" stroke-width="2"/>
<path d="M50.3793 81.7642C54.7159 74.5312 61.8657 69.2429 70.2647 67.0757C78.6644 64.9084 87.613 66.0439 95.1391 70.2282C102.664 74.4118 108.144 81.2958 110.387 89.3565C112.629 97.4159 111.456 106.004 107.121 113.236C102.784 120.469 95.6343 125.757 87.2353 127.924C78.8356 130.092 69.887 128.956 62.3609 124.772C54.836 120.588 49.3563 113.704 47.1134 105.644C44.8708 97.5841 46.0437 88.9956 50.3793 81.7642L50.3793 81.7642Z" stroke="#168C85" stroke-width="2"/>
<path d="M179 86.6666C179 110.011 159.336 129 135 129C110.664 129 91 110.011 91 86.6666C91 63.3218 110.664 44.3333 135 44.3333C159.336 44.3333 179 63.3218 179 86.6666Z" fill="white" stroke="#168C85" stroke-width="2" stroke-linecap="round"/>
<path d="M189.918 195L188.939 195.205L189.106 196H189.918V195ZM236.07 193.883L237.055 193.707V193.707L236.07 193.883ZM166.284 159.364L165.694 158.557L164.477 159.447L165.77 160.222L166.284 159.364ZM235.112 194H189.918V196H235.112V194ZM235.086 194.058C235.086 194.058 235.086 194.057 235.085 194.056C235.085 194.054 235.085 194.052 235.085 194.05C235.086 194.045 235.087 194.039 235.088 194.034C235.091 194.023 235.096 194.015 235.101 194.01C235.105 194.005 235.109 194.002 235.112 194.001C235.116 193.999 235.117 194 235.112 194V196C236.304 196 237.275 194.946 237.055 193.707L235.086 194.058ZM191.25 152.667C208.65 152.667 219.27 161.296 225.731 170.791C232.219 180.327 234.492 190.72 235.086 194.058L237.055 193.707C236.441 190.256 234.104 179.541 227.385 169.666C220.638 159.751 209.452 150.667 191.25 150.667V152.667ZM166.875 160.171C172.954 155.724 180.888 152.667 191.25 152.667V150.667C180.463 150.667 172.116 153.86 165.694 158.557L166.875 160.171ZM165.77 160.222C180.991 169.338 186.758 184.776 188.939 195.205L190.897 194.795C188.666 184.129 182.713 168.038 166.798 158.506L165.77 160.222Z" fill="#168C85"/>
<path d="M103.715 159.364L104.229 160.222L105.523 159.447L104.306 158.557L103.715 159.364ZM33.9292 193.883L32.9447 193.707H32.9447L33.9292 193.883ZM80.081 195V196H80.8935L81.0598 195.205L80.081 195ZM78.7497 152.667C89.1116 152.667 97.0452 155.724 103.125 160.171L104.306 158.557C97.8837 153.86 89.5367 150.667 78.7497 150.667V152.667ZM34.9138 194.058C35.5077 190.72 37.7802 180.327 44.2685 170.791C50.7295 161.296 61.3499 152.667 78.7497 152.667V150.667C60.5474 150.667 49.3617 159.751 42.615 169.666C35.8956 179.541 33.5589 190.256 32.9447 193.707L34.9138 194.058ZM34.8877 194C34.8828 194 34.8837 193.999 34.8876 194.001C34.8907 194.002 34.8947 194.005 34.8988 194.01C34.9031 194.015 34.9081 194.023 34.9113 194.034C34.9129 194.039 34.9137 194.045 34.914 194.05C34.9141 194.052 34.9141 194.054 34.914 194.056C34.9139 194.057 34.9138 194.058 34.9138 194.058L32.9447 193.707C32.7242 194.946 33.6951 196 34.8877 196V194ZM80.081 194H34.8877V196H80.081V194ZM81.0598 195.205C83.241 184.776 89.0086 169.337 104.229 160.222L103.201 158.506C87.2859 168.038 81.333 184.129 79.1022 194.795L81.0598 195.205Z" fill="#168C85"/>
<path d="M135 151.667C186.793 151.667 190.897 197.59 191.222 204.867C191.247 205.419 190.802 205.833 190.25 205.833H79.75C79.1977 205.833 78.7533 205.419 78.778 204.867C79.1031 197.59 83.2066 151.667 135 151.667Z" stroke="#168C85" stroke-width="2" stroke-linecap="round"/>
</svg>
