<svg width="36" height="30" viewBox="0 0 36 30" fill="none" xmlns="http://www.w3.org/2000/svg">
<path d="M30.1004 0.800049C31.5591 0.800049 32.958 1.37951 33.9895 2.41096C35.0209 3.44241 35.6004 4.84136 35.6004 6.30005V23.9C35.6004 25.3587 35.0209 26.7577 33.9895 27.7891C32.958 28.8206 31.5591 29.4 30.1004 29.4H5.90039C4.4417 29.4 3.04275 28.8206 2.0113 27.7891C0.979853 26.7577 0.400391 25.3587 0.400391 23.9V6.30005C0.400391 4.84136 0.979853 3.44241 2.0113 2.41096C3.04275 1.37951 4.4417 0.800049 5.90039 0.800049H30.1004ZM33.4004 9.51425L18.5592 18.2482C18.4189 18.3306 18.262 18.3809 18.1 18.3953C17.9379 18.4098 17.7747 18.3881 17.622 18.3318L17.4416 18.2482L2.60039 9.51865V23.9C2.60039 24.7753 2.94807 25.6146 3.56694 26.2335C4.18581 26.8524 5.02518 27.2 5.90039 27.2001H30.1004C30.9756 27.2 31.815 26.8524 32.4338 26.2335C33.0527 25.6146 33.4004 24.7753 33.4004 23.9V9.51425ZM30.1004 3.00005H5.90039C5.02518 3.00005 4.18581 3.34773 3.56694 3.9666C2.94807 4.58547 2.60039 5.42483 2.60039 6.30005V6.96445L18.0004 16.024L33.4004 6.96005V6.30005C33.4004 5.42483 33.0527 4.58547 32.4338 3.9666C31.815 3.34773 30.9756 3.00005 30.1004 3.00005Z" fill="#168C85"/>
</svg>
