<svg width="38" height="38" viewBox="0 0 38 38" fill="none" xmlns="http://www.w3.org/2000/svg">
<path d="M31.925 6.00161C30.2442 4.30381 28.2421 2.95767 26.0356 2.04171C23.8291 1.12574 21.4623 0.65829 19.0733 0.666613C9.0633 0.666613 0.904968 8.82495 0.904968 18.8349C0.904968 22.0433 1.7483 25.1599 3.32497 27.9099L0.758301 37.3333L10.3833 34.8033C13.0416 36.2516 16.03 37.0216 19.0733 37.0216C29.0833 37.0216 37.2416 28.8633 37.2416 18.8533C37.2416 13.9949 35.3533 9.42995 31.925 6.00161ZM19.0733 33.9416C16.36 33.9416 13.7016 33.2083 11.3733 31.8333L10.8233 31.5033L5.1033 33.0066L6.62497 27.4333L6.2583 26.8649C4.75084 24.4577 3.95039 21.6752 3.9483 18.8349C3.9483 10.5116 10.7316 3.72828 19.055 3.72828C23.0883 3.72828 26.8833 5.30495 29.725 8.16495C31.132 9.56555 32.2471 11.2315 33.0055 13.0662C33.764 14.901 34.1507 16.868 34.1433 18.8533C34.18 27.1766 27.3966 33.9416 19.0733 33.9416ZM27.36 22.6483C26.9016 22.4283 24.665 21.3283 24.2616 21.1633C23.84 21.0166 23.5466 20.9433 23.235 21.3833C22.9233 21.8416 22.0616 22.8683 21.805 23.1616C21.5483 23.4733 21.2733 23.5099 20.815 23.2716C20.3566 23.0516 18.89 22.5566 17.1666 21.0166C15.81 19.8066 14.9116 18.3216 14.6366 17.8633C14.38 17.4049 14.6 17.1666 14.8383 16.9283C15.04 16.7266 15.2966 16.3966 15.5166 16.1399C15.7366 15.8833 15.8283 15.6816 15.975 15.3883C16.1216 15.0766 16.0483 14.8199 15.9383 14.5999C15.8283 14.3799 14.9116 12.1433 14.545 11.2266C14.1783 10.3466 13.7933 10.4566 13.5183 10.4383H12.6383C12.3266 10.4383 11.85 10.5483 11.4283 11.0066C11.025 11.4649 9.85163 12.5649 9.85163 14.8016C9.85163 17.0383 11.4833 19.2016 11.7033 19.4949C11.9233 19.8066 14.9116 24.3899 19.4583 26.3516C20.54 26.8283 21.3833 27.1033 22.0433 27.3049C23.125 27.6533 24.115 27.5983 24.9033 27.4883C25.7833 27.3599 27.5983 26.3883 27.965 25.3249C28.35 24.2616 28.35 23.3633 28.2216 23.1616C28.0933 22.9599 27.8183 22.8683 27.36 22.6483Z" fill="#0A8F88"/>
</svg>
